Coordinates
version=1
nRows=13
nColumns=40
inDegrees=yes

Units are S.I. units (second, meters, Newtons, ...)
If the header above contains a line with 'inDegrees', this indicates whether rotational values are in degrees (yes) or radians (no).

endheader
time	pelvis_tilt	pelvis_list	pelvis_rotation	pelvis_tx	pelvis_ty	pelvis_tz	hip_flexion_r	hip_adduction_r	hip_rotation_r	knee_angle_r	knee_angle_r_beta	ankle_angle_r	subtalar_angle_r	mtp_angle_r	hip_flexion_l	hip_adduction_l	hip_rotation_l	knee_angle_l	knee_angle_l_beta	ankle_angle_l	subtalar_angle_l	mtp_angle_l	lumbar_extension	lumbar_bending	lumbar_rotation	arm_flex_r	arm_add_r	arm_rot_r	elbow_flex_r	pro_sup_r	wrist_flex_r	wrist_dev_r	arm_flex_l	arm_add_l	arm_rot_l	elbow_flex_l	pro_sup_l	wrist_flex_l	wrist_dev_l
      3.46500000	    -36.64103436	      6.06841556	      4.02198235	     -0.40284218	      0.66243753	     -0.93463775	     96.31471148	    -17.11167309	     14.98685965	     95.05339090	      1.65899464	     36.94436539	      0.00000000	      0.00000000	     94.05995065	     -7.73179548	      0.92042015	     92.27235471	      1.61045640	     34.14874852	      0.00000000	      0.00000000	    -30.01368469	     -5.07608386	     -1.45505723	    -25.88403854	    -54.83912332	     32.91653148	    100.46132044	     88.14065840	      0.00000000	      0.00000000	     16.37358673	    -64.78254319	     75.79454461	    106.86122142	     88.12189095	      0.00000000	      0.00000000
      3.47000000	    -36.54026138	      6.06863254	      3.94595721	     -0.40159927	      0.66581133	     -0.93429256	     95.76183280	    -16.95594769	     14.92624087	     94.56496187	      1.65046994	     36.83078970	      0.00000000	      0.00000000	     93.51668943	     -7.66990400	      0.98276293	     91.74033020	      1.60117082	     34.03575354	      0.00000000	      0.00000000	    -29.54849050	     -5.17260312	     -1.37658680	    -25.78590390	    -54.80203772	     33.01266203	    100.37764444	     88.13898765	      0.00000000	      0.00000000	     16.39973066	    -64.73516715	     75.81985061	    106.79516696	     88.11952292	      0.00000000	      0.00000000
      3.47500000	    -36.06968302	      6.13172318	      4.05498666	     -0.39964705	      0.67013886	     -0.93456178	     94.76178122	    -17.15008851	     14.85667686	     94.07634078	      1.64194189	     36.91196262	      0.00000000	      0.00000000	     92.49863363	     -7.36034036	      0.92642136	     91.18811632	      1.59153287	     34.15064288	      0.00000000	      0.00000000	    -29.43705088	     -5.19003403	     -1.60376985	    -24.78549899	    -54.89678248	     34.00680035	     99.95150465	     88.13504573	      0.00000000	      0.00000000	     16.85637050	    -64.46550199	     76.22425946	    106.30757082	     88.11634069	      0.00000000	      0.00000000
      3.48000000	    -35.80223753	      6.17757324	      3.86929132	     -0.39789148	      0.67415192	     -0.93391066	     93.98280116	    -16.92282292	     14.76432236	     93.52179174	      1.63226319	     36.72640442	      0.00000000	      0.00000000	     91.70419924	     -7.42018549	      0.94014000	     90.60700447	      1.58139055	     33.95664220	      0.00000000	      0.00000000	    -29.12404268	     -5.37655101	     -1.46591236	    -24.67049244	    -54.75527492	     34.04484222	     99.83186360	     88.12943511	      0.00000000	      0.00000000	     16.84227710	    -64.39462327	     76.21830296	    106.12241439	     88.10727104	      0.00000000	      0.00000000
      3.48500000	    -35.23432771	      6.20773516	      3.97387124	     -0.39581579	      0.67868997	     -0.93421528	     92.86520360	    -17.11886174	     14.67462525	     93.04400738	      1.62392428	     36.65602986	      0.00000000	      0.00000000	     90.61355928	     -7.14896499	      0.87193832	     90.09912102	      1.57252631	     33.90077880	      0.00000000	      0.00000000	    -29.11407564	     -5.33975261	     -1.58489296	    -24.23320398	    -54.67202520	     34.23186667	     99.40355649	     88.12302481	      0.00000000	      0.00000000	     17.08054972	    -64.09819782	     76.18548997	    105.57992314	     88.09694676	      0.00000000	      0.00000000
      3.49000000	    -34.97374142	      6.23244257	      3.75508230	     -0.39417791	      0.68285502	     -0.93349385	     92.06922127	    -16.85426203	     14.55927768	     92.43471073	      1.61329005	     36.49796978	      0.00000000	      0.00000000	     89.82190872	     -7.26420095	      0.86628594	     89.48126235	      1.56174265	     33.74970891	      0.00000000	      0.00000000	    -28.74713703	     -5.52391223	     -1.43861358	    -24.06701732	    -54.55522373	     34.30630374	     99.28804046	     88.12221742	      0.00000000	      0.00000000	     17.09514293	    -64.00797432	     76.19833633	    105.39015858	     88.09356568	      0.00000000	      0.00000000
      3.49500000	    -34.59688893	      6.18114262	      3.64714419	     -0.39242289	      0.68698362	     -0.93302017	     91.13785859	    -16.70270586	     14.40874271	     91.91263990	      1.60417819	     36.42275279	      0.00000000	      0.00000000	     88.97730565	     -7.32157279	      0.85987276	     88.99448718	      1.55324682	     33.68759295	      0.00000000	      0.00000000	    -28.42856310	     -5.56605665	     -1.34013074	    -23.60023762	    -54.44027895	     34.65380501	     98.87991749	     88.12144487	      0.00000000	      0.00000000	     17.24323982	    -63.74616907	     76.33838011	    104.69814504	     88.08985855	      0.00000000	      0.00000000
      3.50000000	    -34.00851135	      6.26694068	      3.93375181	     -0.38997229	      0.69204145	     -0.93386600	     89.96725857	    -17.19846542	     14.28893957	     91.38700629	      1.59500415	     36.31065586	      0.00000000	      0.00000000	     87.77360769	     -6.78276534	      0.78204699	     88.32413664	      1.54154699	     33.55284361	      0.00000000	      0.00000000	    -28.39793709	     -5.47614618	     -1.67766697	    -23.23843606	    -54.36883319	     34.86262088	     98.57275355	     88.11985254	      0.00000000	      0.00000000	     17.44571000	    -63.43419131	     76.39738955	    104.25354802	     88.08670174	      0.00000000	      0.00000000
      3.50500000	    -33.48694866	      6.21866623	      3.88216259	     -0.38778633	      0.69684656	     -0.93356162	     88.81132880	    -17.17680066	     14.03771140	     90.79081838	      1.58459871	     36.21120798	      0.00000000	      0.00000000	     86.70165421	     -6.74494697	      0.78368017	     87.71867194	      1.53097964	     33.46586932	      0.00000000	      0.00000000	    -28.22234686	     -5.47133563	     -1.70796817	    -22.76878759	    -54.31784354	     35.22747248	     98.21995914	     88.12053616	      0.00000000	      0.00000000	     17.59183785	    -63.19948567	     76.55013044	    103.78995943	     88.08271585	      0.00000000	      0.00000000
      3.51000000	    -32.90208476	      6.24643336	      3.96645714	     -0.38551812	      0.70193520	     -0.93369752	     87.61135286	    -17.39853070	     13.84290470	     90.19215920	      1.57415014	     36.16006176	      0.00000000	      0.00000000	     85.51702807	     -6.50918113	      0.72600950	     87.05454145	      1.51938838	     33.35098495	      0.00000000	      0.00000000	    -28.12353383	     -5.45254089	     -1.87559981	    -22.27239791	    -54.24657018	     35.67404653	     97.88619769	     88.12330791	      0.00000000	      0.00000000	     17.77434102	    -62.93626719	     76.70830347	    103.30495534	     88.08431280	      0.00000000	      0.00000000
      3.51500000	    -32.62255136	      6.26935052	      3.97156205	     -0.38373672	      0.70644250	     -0.93359050	     86.77329603	    -17.41520974	     13.71187875	     89.54518832	      1.56285837	     35.94766946	      0.00000000	      0.00000000	     84.67613652	     -6.43264150	      0.63375897	     86.35287130	      1.50714192	     33.12482730	      0.00000000	      0.00000000	    -27.64612026	     -5.52454400	     -1.91647446	    -22.18133390	    -54.15775075	     35.75435956	     97.72316040	     88.12000847	      0.00000000	      0.00000000	     17.76815569	    -62.82512633	     76.74696894	    103.09701328	     88.07951111	      0.00000000	      0.00000000
      3.52000000	    -31.76436208	      6.27036748	      4.06378487	     -0.38091749	      0.71211754	     -0.93366548	     85.20779602	    -17.70104661	     13.38629140	     88.96710827	      1.55276897	     35.90611595	      0.00000000	      0.00000000	     83.18447825	     -6.20661424	      0.59076413	     85.70528754	      1.49583945	     33.03217077	      0.00000000	      0.00000000	    -27.72974956	     -5.48982258	     -2.22906630	    -20.93293424	    -54.17196232	     36.98470462	     97.10118772	     88.11125055	      0.00000000	      0.00000000	     18.13489959	    -62.54256254	     77.15201927	    102.36086647	     88.07139197	      0.00000000	      0.00000000
      3.52500000	    -31.22308641	      6.25085089	      3.82631028	     -0.37871562	      0.71725478	     -0.93285894	     84.02362772	    -17.46014410	     13.18025777	     88.25798771	      1.54039248	     35.64270786	      0.00000000	      0.00000000	     82.05433830	     -6.43611456	      0.47906418	     85.05737711	      1.48453128	     32.77870913	      0.00000000	      0.00000000	    -27.50159858	     -5.62858885	     -2.06443969	    -20.70891949	    -53.94437682	     37.04776041	     96.73048294	     88.10613537	      0.00000000	      0.00000000	     18.15016086	    -62.31936840	     77.05535210	    101.84884407	     88.06350273	      0.00000000	      0.00000000
